<svg xmlns:mydata="http://www.w3.org/2000/svg" mydata:contrastcolor="222223" mydata:template="Default" mydata:presentation="2.5" mydata:layouttype="undefined" mydata:specialfontid="undefined" mydata:id1="242" mydata:id2="385" mydata:companyname="Prates" mydata:companytagline="" version="1.1" xmlns="http://www.w3.org/2000/svg" xmlns:xlink="http://www.w3.org/1999/xlink" viewBox="123.72780257968452 115 302.54439484063096 240"><g fill="#85714d" fill-rule="none" stroke="none" stroke-width="1" stroke-linecap="butt" stroke-linejoin="miter" stroke-miterlimit="10" stroke-dasharray="" stroke-dashoffset="0" font-family="none" font-weight="none" font-size="none" text-anchor="none" style="mix-blend-mode: normal"><g data-paper-data="{&quot;isGlobalGroup&quot;:true,&quot;bounds&quot;:{&quot;x&quot;:123.72780257968452,&quot;y&quot;:115,&quot;width&quot;:302.54439484063096,&quot;height&quot;:240}}"><g data-paper-data="{&quot;isPrimaryText&quot;:true}" fill-rule="evenodd"><g data-paper-data="{&quot;glyphName&quot;:&quot;P&quot;,&quot;glyphIndex&quot;:0,&quot;firstGlyphOfWord&quot;:true,&quot;word&quot;:1}"><path d="M123.7278,257.32814v-44.65663h47.51609v44.65663zM150.37521,220.02961c1.34,0 2.60322,0.25823 3.78967,0.77468c1.18645,0.51646 2.21937,1.22833 3.09874,2.13562c0.87937,0.90729 1.57729,1.96114 2.09374,3.16155c0.51646,1.20041 0.77468,2.48457 0.77468,3.85249c0,1.36791 -0.25823,2.65207 -0.77468,3.85249c-0.51646,1.20041 -1.21437,2.25426 -2.09374,3.16155c-0.87937,0.90729 -1.91228,1.61916 -3.09874,2.13562c-1.18645,0.51646 -2.44968,0.77468 -3.78967,0.77468v0.04187h-9.25438v10.17559h-6.28123v-16.45682h9.21247l-7.3281,-7.3281v-6.28123z" style="fill: rgb(255, 255, 255);"></path><path d="M153.43208,231.7127c-0.27917,0.53041 -0.65604,0.96312 -1.13062,1.29812l-6.70001,-6.69998h4.77377c0.97708,0 1.80062,0.35594 2.47062,1.06781c0.67,0.71187 1.005,1.57031 1.005,2.5753c0,0.64208 -0.13958,1.22833 -0.41875,1.75874z" style="fill: rgb(255, 255, 255);"></path></g><g data-paper-data="{&quot;glyphName&quot;:&quot;R&quot;,&quot;glyphIndex&quot;:1,&quot;word&quot;:1}"><path d="M174.73346,257.32814v-44.65663h47.51609v44.65663zM185.74062,237.11455c-0.02792,-0.05583 -0.04187,-0.12562 -0.04187,-0.20937c0,-0.11167 0.01396,-0.18146 0.04187,-0.20937v-2.93124h9.17059l-7.36997,-7.3281v-6.28123h13.73495c1.34,0 2.60322,0.25823 3.78967,0.77468c1.18645,0.51646 2.21937,1.22833 3.09874,2.13562c0.87937,0.90729 1.57729,1.96114 2.09374,3.16155c0.51646,1.20041 0.77468,2.48457 0.77468,3.85249c0,1.36791 -0.25823,2.65207 -0.77468,3.85249c-0.51646,1.20041 -1.21437,2.25426 -2.09374,3.16155c-0.87937,0.90729 -1.91228,1.61916 -3.09874,2.13562c-1.18645,0.51646 -2.44968,0.77468 -3.78967,0.77468v0.04187h-0.1675l10.17559,10.13371l-8.96122,0.04187l-10.13371,-10.17559h-0.1675v10.13371h-6.28123z" style="fill: rgb(255, 255, 255);"></path><path d="M203.20243,233.13644l-6.69998,-6.69998h4.77373c0.97708,0 1.80062,0.35594 2.47062,1.06781c0.67,0.71187 1.005,1.57031 1.005,2.5753c0,0.64208 -0.13958,1.22833 -0.41875,1.75874c-0.27917,0.53041 -0.65604,0.96312 -1.13062,1.29812z" style="fill: rgb(255, 255, 255);"></path></g><g data-paper-data="{&quot;glyphName&quot;:&quot;A&quot;,&quot;glyphIndex&quot;:2,&quot;word&quot;:1}"><path d="M225.73912,257.32814v-44.65663h47.51609v44.65663zM238.19096,229.66083c0.02792,-1.34 0.34896,-2.62416 0.96312,-3.85249c0.61416,-1.22833 1.46562,-2.30312 2.55437,-3.22436c1.06083,-0.89333 2.25426,-1.57729 3.5803,-2.05187c1.32604,-0.47458 2.72884,-0.71187 4.20842,-0.71187c1.45166,0 2.84749,0.23729 4.18748,0.71187c1.34,0.47458 2.54041,1.15854 3.60124,2.05187c1.08875,0.92125 1.93322,1.99603 2.53343,3.22436c0.60021,1.22833 0.91427,2.51249 0.94218,3.85249h0.04187v20.51868h-6.28123v-8.58434h-10.04996v8.58434h-6.28123z" style="fill: rgb(255, 255, 255);"></path><path d="M254.01965,228.25802c0.27917,0.43271 0.44667,0.90031 0.5025,1.40281v5.6531h-10.04996v-5.6531c0.02792,-0.5025 0.18146,-0.9701 0.46062,-1.40281c0.27917,-0.43271 0.64906,-0.80958 1.10968,-1.13062c0.46062,-0.32104 0.98406,-0.57229 1.57031,-0.75375c0.58625,-0.18146 1.21437,-0.27219 1.88437,-0.27219c0.67,0 1.29812,0.09073 1.88437,0.27219c0.58625,0.18146 1.1027,0.43271 1.54937,0.75375c0.44667,0.32104 0.80958,0.69791 1.08875,1.13062z" style="fill: rgb(255, 255, 255);"></path></g><path d="M276.74479,212.6715v44.65663h47.51609v-44.65663zM311.7881,226.26897v-6.28123h-22.57054v6.28123h8.1656v23.82679h6.28123v-23.82679z" data-paper-data="{&quot;glyphName&quot;:&quot;T&quot;,&quot;glyphIndex&quot;:3,&quot;word&quot;:1}" style="fill: rgb(255, 255, 255);"></path><path d="M327.75045,212.6715v44.65663h47.51609v-44.65663zM351.29912,226.31084h11.51558v-6.28123h-20.76993v6.28123l7.36997,7.3281h-9.21247v16.54057h22.61242v-6.28123h-16.33119v-3.97811h12.56245v-6.28123z" data-paper-data="{&quot;glyphName&quot;:&quot;E&quot;,&quot;glyphIndex&quot;:4,&quot;word&quot;:1}" style="fill: rgb(255, 255, 255);"></path><path d="M378.75611,212.6715v44.65663h47.51609v-44.65663zM414.78348,237.13549c-0.79562,-1.21437 -1.93322,-2.2403 -3.4128,-3.0778c-1.22833,-0.69791 -2.59624,-1.23531 -4.10374,-1.61218c-1.50749,-0.37687 -3.08478,-0.56531 -4.73186,-0.56531v0.04187c-1.06083,0 -2.07978,-0.11865 -3.05686,-0.35594c-0.97708,-0.23729 -1.82854,-0.55135 -2.55437,-0.94218c-0.53041,-0.30708 -0.79562,-0.75375 -0.79562,-1.34c0,-0.58625 0.26521,-1.03291 0.79562,-1.34c0.72583,-0.41875 1.57729,-0.73979 2.55437,-0.96312c0.97708,-0.22333 1.99603,-0.335 3.05686,-0.335c0.61416,0 1.28416,0.06281 2.00999,0.18844c0.72583,0.12562 1.43072,0.29312 2.11468,0.5025c0.68396,0.20937 1.31208,0.45364 1.88437,0.73281c0.57229,0.27917 1.01198,0.58625 1.31906,0.92125l4.18748,-4.68998c-0.44667,-0.61416 -1.10968,-1.17947 -1.98906,-1.69593c-0.87937,-0.51646 -1.85645,-0.95614 -2.93124,-1.31906c-1.07479,-0.36292 -2.19145,-0.64208 -3.34999,-0.8375c-1.15854,-0.19542 -2.2403,-0.29312 -3.2453,-0.29312c-1.64708,0 -3.22436,0.18146 -4.73186,0.54437c-1.50749,0.36292 -2.87541,0.90729 -4.10374,1.63312c-1.47958,0.8375 -2.62416,1.85645 -3.43374,3.05686c-0.80958,1.20041 -1.21437,2.49853 -1.21437,3.89436c0,1.36791 0.40479,2.65905 1.21437,3.87342c0.80958,1.21437 1.95416,2.2403 3.43374,3.0778c1.22833,0.69791 2.59624,1.23531 4.10374,1.61218c1.50749,0.37687 3.08478,0.56531 4.73186,0.56531c1.06083,0 2.07978,0.11167 3.05686,0.335c0.97708,0.22333 1.82854,0.53041 2.55437,0.92125c0.5025,0.30708 0.75375,0.75375 0.75375,1.34c0,0.58625 -0.25125,1.03291 -0.75375,1.34c-0.72583,0.41875 -1.57729,0.73979 -2.55437,0.96312c-0.97708,0.22333 -1.99603,0.335 -3.05686,0.335c-0.64208,0 -1.32604,-0.06281 -2.05187,-0.18844c-0.72583,-0.12562 -1.43072,-0.29312 -2.11468,-0.5025c-0.68396,-0.20937 -1.3051,-0.45364 -1.86343,-0.73281c-0.55833,-0.27917 -0.99104,-0.58625 -1.29812,-0.92125l-4.18748,4.73186c0.44667,0.61416 1.10968,1.1725 1.98906,1.67499c0.87937,0.5025 1.85645,0.9352 2.93124,1.29812c1.07479,0.36292 2.19145,0.64208 3.34999,0.8375c1.15854,0.19542 2.2403,0.29312 3.2453,0.29312c1.64708,0 3.22436,-0.18146 4.73186,-0.54437c1.50749,-0.36292 2.87541,-0.89333 4.10374,-1.59124c1.47958,-0.86541 2.61718,-1.89833 3.4128,-3.09874c0.79562,-1.20041 1.19343,-2.49853 1.19343,-3.89436c0,-1.36791 -0.39781,-2.65905 -1.19343,-3.87342z" data-paper-data="{&quot;glyphName&quot;:&quot;S&quot;,&quot;glyphIndex&quot;:5,&quot;lastGlyphOfWord&quot;:true,&quot;word&quot;:1}" style="fill: rgb(255, 255, 255);"></path></g><path d="M190.14752,150.14735c11.07124,-11.0717 23.78544,-19.64379 38.1426,-25.71626c14.86475,-6.28739 30.43471,-9.43108 46.70988,-9.43108c16.27471,0 31.84467,3.14369 46.70988,9.43108c14.35716,6.07247 27.07136,14.64456 38.1426,25.71626c11.0717,11.0717 19.64384,23.7859 25.7164,38.1426c2.62991,6.21753 4.7098,12.55845 6.23969,19.02274l-4.61425,0c-1.44622,-5.86496 -3.36471,-11.62362 -5.75548,-17.276c-5.84558,-13.81998 -14.09782,-26.05965 -24.7567,-36.719c-10.65935,-10.65921 -22.89901,-18.91144 -36.719,-24.7567c-14.30677,-6.05125 -29.29448,-9.07688 -44.96314,-9.07688c-15.66866,0 -30.65637,3.02563 -44.96314,9.07688c-13.81998,5.84531 -26.05965,14.09754 -36.719,24.7567c-10.65935,10.65935 -18.91158,22.89901 -24.7567,36.719c-2.39077,5.65238 -4.30927,11.41104 -5.75548,17.276l-4.61425,0c1.52989,-6.46429 3.60978,-12.80521 6.23969,-19.02274c6.07256,-14.35716 14.6447,-27.07136 25.7164,-38.1426zM385.56888,281.70971c-6.07256,14.35716 -14.6447,27.07136 -25.7164,38.1426c-11.0717,11.0717 -23.7859,19.64384 -38.1426,25.7164c-14.86475,6.28753 -30.43471,9.43129 -46.70988,9.43129c-16.27517,0 -31.84513,-3.14376 -46.70988,-9.43129c-14.35716,-6.07256 -27.07136,-14.6447 -38.1426,-25.7164c-11.0717,-11.0717 -19.64384,-23.7859 -25.7164,-38.1426c-2.62991,-6.21754 -4.70981,-12.55846 -6.23969,-19.02275l4.61425,0c1.44622,5.86496 3.36471,11.62363 5.75549,17.27601c5.84512,13.81998 14.09735,26.05965 24.7567,36.719c10.65935,10.65935 22.89901,18.91158 36.719,24.7567c14.30677,6.0513 29.29448,9.07695 44.96314,9.07695c15.66866,0 30.65637,-3.02565 44.96314,-9.07695c13.81998,-5.84558 26.05965,-14.09782 36.719,-24.7567c10.65935,-10.65981 18.91158,-22.89947 24.7567,-36.719c2.39077,-5.65238 4.30927,-11.41105 5.75549,-17.27601h4.61425c-1.52989,6.4643 -3.60978,12.80521 -6.23969,19.02275z" data-paper-data="{&quot;isLogoContainer&quot;:true}" fill-rule="nonzero" style="fill: rgb(255, 255, 255);"></path></g></g><g class="watermark-group" style="opacity:0.040000010281801224"></g></svg>