<svg width="921" height="810" viewBox="0 0 921 810" fill="none" xmlns="http://www.w3.org/2000/svg">
<path fill-rule="evenodd" clip-rule="evenodd" d="M353.614 151.791C320.762 165.686 291.67 185.3 266.337 210.633C241.005 235.965 221.391 265.058 207.495 297.91C193.107 331.929 185.913 367.557 185.913 404.795C185.913 442.033 193.107 477.662 207.495 511.682C215.329 530.202 224.979 547.526 236.447 563.655C244.612 562.768 252.776 561.93 260.94 561.14C247.107 543.552 235.777 524.323 226.949 503.451C213.673 472.064 207.035 439.179 207.035 404.795C207.035 370.412 213.673 337.527 226.949 306.138C239.774 275.816 257.882 248.959 281.273 225.568C304.663 202.178 331.52 184.07 361.843 171.245C393.231 157.968 426.116 151.33 460.499 151.33C494.882 151.33 527.768 157.968 559.156 171.245C589.478 184.07 616.335 202.178 639.725 225.568C663.116 248.959 681.224 275.816 694.05 306.138C707.328 337.527 713.965 370.412 713.965 404.795C713.965 439.179 707.328 472.064 694.05 503.451C685.222 524.323 673.892 543.552 660.059 561.14C668.224 561.93 676.389 562.768 684.552 563.655C696.019 547.524 705.669 530.2 713.502 511.682C727.893 477.662 735.086 442.033 735.086 404.795C735.086 367.557 727.893 331.929 713.502 297.91C699.611 265.058 679.996 235.966 654.661 210.633C629.33 185.3 600.238 165.686 567.386 151.791C533.367 137.403 497.738 130.208 460.499 130.208C423.261 130.208 387.633 137.403 353.614 151.791ZM519.085 552.31C517.782 546.377 512.498 541.933 506.168 541.933C500.038 541.933 494.891 546.096 493.384 551.743C501.95 551.878 510.518 552.067 519.085 552.31ZM470.327 551.501C467.99 549.423 464.909 548.159 461.53 548.159C458.159 548.159 455.084 549.419 452.749 551.493C458.61 551.472 464.469 551.474 470.327 551.501ZM492.937 194.038V241.983C492.932 249.287 498.853 255.214 506.168 255.214C513.477 255.214 519.393 249.287 519.393 241.983V194.038C519.393 186.728 513.472 180.812 506.168 180.812C498.853 180.812 492.937 186.734 492.937 194.038ZM448.305 200.263V248.208C448.305 255.518 454.226 261.445 461.53 261.445C468.845 261.445 474.761 255.518 474.761 248.213V200.263C474.761 192.953 468.84 187.037 461.53 187.037C454.22 187.037 448.305 192.959 448.305 200.263ZM401.606 206.493V254.439C401.606 261.743 407.528 267.669 414.837 267.669C422.147 267.669 428.068 261.743 428.068 254.439V206.493C428.068 199.183 422.147 193.262 414.837 193.262C407.528 193.262 401.606 199.189 401.606 206.493ZM561.97 303.339C553.212 294.581 541.445 289.869 528.866 290.07L509.698 290.373L459.096 340.97L469.197 380.885L436.581 413.507L392.893 402.456L381.836 358.772L414.463 326.156L454.373 336.253L500.116 290.52L395.723 292.179C383.143 292.38 371.241 297.466 362.196 306.51C353.162 315.55 348.065 327.457 347.87 340.043L345.76 473.17C345.56 485.755 350.272 497.501 359.018 506.269C367.776 515.027 379.542 519.732 392.117 519.533L413.2 519.197L462.821 469.569L452.724 429.66L485.346 397.033L529.018 408.09L540.079 451.768L507.459 484.389L467.549 474.282L422.781 519.049L525.25 517.423C537.836 517.224 549.744 512.137 558.794 503.09C567.827 494.05 572.918 482.146 573.12 469.559L575.241 336.437C575.436 323.846 570.717 312.101 561.97 303.339ZM529.685 335.613L538.139 369.005L513.195 393.959L484.12 386.595L442.297 428.418L449.66 457.488L424.717 482.442L391.309 473.984L382.85 440.587L407.799 415.643L436.874 423.001L478.692 381.178L471.328 352.103L496.277 327.159L529.685 335.613ZM455.674 377.458L448.039 347.309L417.896 339.68L395.382 362.199L403.005 392.343L433.16 399.972L455.674 377.458ZM310.135 372.361C317.444 372.361 323.366 366.44 323.366 359.136C323.36 351.821 317.439 345.905 310.135 345.905H262.195C254.885 345.905 248.964 351.826 248.964 359.136C248.964 366.445 254.885 372.361 262.195 372.361H310.135ZM671.259 372.361C678.569 372.361 684.487 366.44 684.487 359.136C684.49 351.821 678.569 345.905 671.259 345.905H623.319C616.01 345.905 610.095 351.826 610.095 359.136C610.095 366.445 616.017 372.361 623.319 372.361H671.259ZM303.904 419.059C311.214 419.059 317.135 413.133 317.135 405.829C317.135 398.525 311.214 392.603 303.904 392.603H255.97C248.66 392.603 242.739 398.525 242.739 405.829C242.739 413.133 248.66 419.059 255.97 419.059H303.904ZM665.034 419.059C672.343 419.059 678.265 413.133 678.265 405.829C678.265 398.525 672.34 392.603 665.034 392.603H617.097C609.785 392.603 603.87 398.525 603.87 405.829C603.87 413.133 609.792 419.059 617.097 419.059H665.034ZM466.264 433.082L473.888 463.22L504.037 470.855L526.551 448.33L518.911 418.186L488.778 410.562L466.264 433.082ZM297.679 463.686C304.989 463.686 310.91 457.759 310.91 450.455C310.91 443.151 304.989 437.23 297.679 437.23H249.739C242.43 437.23 236.509 443.151 236.509 450.455C236.509 457.759 242.43 463.686 249.739 463.686H297.679ZM658.805 463.686C666.114 463.686 672.036 457.759 672.036 450.455C672.036 443.151 666.114 437.23 658.805 437.23H610.865C603.556 437.23 597.641 443.151 597.641 450.455C597.641 457.759 603.559 463.686 610.865 463.686H658.805Z" fill="#736635"/>
<path d="M169.975 601.375L183.188 710.628L183.415 710.601C196.56 697.249 203.128 690.536 203.119 690.46L194.276 617.347C193.833 616.862 189.445 613.626 181.11 607.639L181.083 607.412C193.984 612.386 201.327 615.264 203.189 616.038L205.538 615.754C216.6 614.417 223.274 614.301 225.493 615.493C231.248 617.949 234.498 621.938 235.176 627.544C235.808 632.772 234.533 636.847 231.293 639.929C229.596 643.056 222.799 645.338 210.828 646.786L203.328 647.693L205.573 666.256L209.891 665.733C221.029 664.386 228.266 663.204 231.535 662.27C236.839 661.629 242.083 659.226 247.201 655.148C255.808 647.496 259.415 637.912 258.013 626.32L257.757 624.198C256.217 611.47 250.156 602.671 239.564 597.725C235.628 595.049 225.662 594.64 209.751 596.565L169.975 601.375Z" fill="#736635"/>
<path d="M264.306 590.748L272.406 699.657L272.71 699.634L293.062 681.055L287.606 607.688L275.124 597.29C285.969 602.147 293.471 605.262 297.553 606.642L297.858 606.619C305.088 606.082 310.971 605.95 315.512 606.301C323.222 608.1 327.384 612.612 327.916 619.766L327.99 620.755C328.256 624.332 327.123 627.631 324.669 630.645C322.728 634.386 315.704 636.669 303.527 637.574L295.536 638.169L296.917 656.739L307.876 655.923L320.341 675.353L334.151 695.371L357.744 693.616C357.716 693.236 357.442 692.644 356.935 691.993C341.018 667.31 332.588 653.779 331.576 651.482C345.558 645.009 352.001 633.892 350.824 618.062C350.337 611.517 348.549 605.987 345.528 601.39C343.379 597.188 339.998 593.919 335.456 591.502C332.264 587.684 321.691 586.48 303.805 587.81L264.306 590.748Z" fill="#736635"/>
<path d="M417.7 582.577L367.12 693.14L390.621 692.663L427.129 614.674L422.682 636.29L451.052 691.438L474.4 690.964L417.7 582.577Z" fill="#736635"/>
<path d="M485.29 581.581L484.688 599.887L510.392 600.733L525.187 587.399C519.772 596.461 517.018 601.257 517.003 601.715L514.028 692.101C525.455 683.62 532.974 677.911 536.58 675.052L538.978 602.209C538.988 601.904 539.146 601.756 539.53 601.693L571.337 602.74L571.939 584.433L485.29 581.581Z" fill="#736635"/>
<path d="M584.581 585.688L575.881 694.32L642.901 699.688C644.402 699.119 649.974 693.594 659.618 683.112L598.531 678.219L598.872 673.959C599.378 667.645 600.34 659.453 601.683 649.378L592.641 634.184L609.424 648.314L656.134 652.055L657.559 634.254L602.406 629.836L604.24 606.938C604.319 605.949 604.894 605.46 606.054 605.323L651.926 608.997C652.662 607.448 656.789 601.807 664.382 592.079L584.581 585.688Z" fill="#736635"/>
<path d="M712.344 597.234C706.513 596.507 700.464 596.907 694.283 598.368C681.724 602.878 674.807 610.246 673.515 620.621L673.279 622.514C672.081 632.132 675.748 640.357 684.279 647.188L706.04 644.131L706.494 644.187C706.116 644.755 700.816 647.171 690.519 651.426L690.462 651.88C699.494 655.313 705.639 657.847 708.971 659.493C722.264 664.533 728.58 670.011 727.834 675.994L727.363 679.78C723.456 687.061 716.235 690.084 705.86 688.791L703.891 688.546C699.422 687.989 694.982 685.975 690.57 682.503C686.904 677.355 684.942 672.111 684.77 666.706L684.826 666.252C681.826 666.878 675.087 669.115 664.534 672.953C667.183 692.432 679.418 703.493 701.228 706.21L704.561 706.625C716.45 708.107 726.162 706.702 733.761 702.496C742.572 696.595 747.548 689.37 748.595 680.964L749.124 676.723C751.039 661.35 741.502 649.625 720.437 641.54C701.73 635.518 692.763 629.71 693.47 624.03L693.706 622.137C694.376 616.76 700.528 614.296 712.162 614.746C715.873 615.208 719.584 616.286 723.362 618.064C728.39 622.151 730.606 626.58 729.993 631.503C733.543 630.791 740.584 628.592 751.194 624.915C750.758 623.476 750.578 622.454 750.644 621.924C746.142 608.058 735.291 600.092 718.1 597.951L712.344 597.234Z" fill="#736635"/>
<path fill-rule="evenodd" clip-rule="evenodd" d="M1.81095 691.63L85.9664 747.223C86.4076 747.515 86.8876 747.711 87.4062 747.812C87.9248 747.916 88.4435 747.917 88.9623 747.816C336.654 699.488 584.346 699.488 832.037 747.816C832.558 747.917 833.077 747.916 833.595 747.812C834.113 747.711 834.592 747.515 835.033 747.223L919.19 691.63C919.301 691.558 919.407 691.48 919.508 691.395C919.611 691.311 919.71 691.223 919.804 691.132C919.898 691.038 919.987 690.94 920.071 690.839C920.156 690.738 920.235 690.632 920.31 690.521C920.382 690.413 920.45 690.301 920.512 690.185C920.575 690.067 920.633 689.948 920.686 689.827C920.736 689.704 920.781 689.58 920.819 689.455C920.858 689.33 920.89 689.202 920.917 689.072C920.943 688.942 920.964 688.812 920.978 688.682C920.993 688.55 921 688.417 921 688.285C921 688.152 920.994 688.021 920.982 687.891C920.97 687.758 920.952 687.627 920.928 687.497C920.901 687.367 920.87 687.239 920.834 687.114C920.795 686.986 920.751 686.861 920.7 686.738C920.65 686.618 920.594 686.499 920.534 686.381C920.471 686.265 920.404 686.152 920.332 686.041L863.738 600.37C863.439 599.917 863.066 599.54 862.618 599.239C862.167 598.938 861.676 598.735 861.144 598.632C594.048 546.521 326.952 546.521 59.8554 598.632C59.3243 598.736 58.8339 598.938 58.3842 599.239C57.9342 599.54 57.5602 599.917 57.262 600.37L0.668552 686.041C0.373741 686.487 0.175588 686.972 0.0742011 687.497C-0.027437 688.022 -0.0246598 688.547 0.0825325 689.072C0.189474 689.595 0.392785 690.078 0.692396 690.521C0.991788 690.964 1.36461 691.334 1.81095 691.63ZM89.0374 739.582L9.62369 687.121L63.0605 606.23C328.02 554.747 592.98 554.747 857.939 606.23L911.379 687.121L831.962 739.582C584.321 691.474 336.679 691.474 89.0374 739.582Z" fill="#736635"/>
<path fill-rule="evenodd" clip-rule="evenodd" d="M460.5 0C236.937 0 55.7046 181.233 55.7046 404.795C55.7046 468.941 70.6251 529.602 97.1849 583.497C138.156 576.276 179.126 570.276 220.097 565.497C189.314 519.54 171.36 464.264 171.36 404.795C171.36 245.108 300.812 115.656 460.5 115.656C620.187 115.656 749.64 245.108 749.64 404.795C749.64 464.264 731.687 519.54 700.904 565.497C741.876 570.276 782.846 576.276 823.814 583.497C850.374 529.602 865.295 468.941 865.295 404.795C865.295 181.233 684.061 0 460.5 0ZM448.193 37.9382C445.938 37.957 444.161 39.7642 444.179 42.019L444.41 69.7704C444.45 74.5688 448.356 78.4105 453.155 78.3704L467.03 78.2551C469.285 78.2363 471.062 76.4291 471.044 74.1742C471.025 71.9194 469.218 70.1421 466.963 70.1609L453.087 70.2762C452.741 70.2791 452.507 70.0497 452.504 69.7028L452.273 41.9519C452.255 39.697 450.448 37.9197 448.193 37.9382ZM391.796 48.1969C391.452 45.9684 392.949 43.9231 395.178 43.5787L413.462 40.7512C415.69 40.4069 417.735 41.9042 418.08 44.1326C418.424 46.3608 416.927 48.4061 414.699 48.7508L400.414 50.9594L401.651 58.9589L415.936 56.7499C418.164 56.4056 420.209 57.9028 420.554 60.1313C420.899 62.3594 419.401 64.4047 417.173 64.7494L402.888 66.958L404.125 74.9575L418.41 72.7485C420.638 72.4039 422.683 73.9014 423.028 76.1299C423.372 78.358 421.875 80.4034 419.647 80.748L401.363 83.5752C399.134 83.9198 397.089 82.4224 396.744 80.194L391.796 48.1969ZM503.187 42.2167C505.801 41.4717 508.507 41.3232 511.198 41.6982C513.89 42.0732 516.452 42.9555 518.763 44.3866C521.032 45.6953 522.951 47.4223 524.521 49.5673C526.155 51.6628 527.292 53.9813 527.93 56.5219C528.675 59.1359 528.823 61.8417 528.448 64.533C528.073 67.2247 527.191 69.787 525.76 72.0975C524.451 74.367 522.724 76.2863 520.579 77.8555C518.484 79.4901 516.165 80.6264 513.625 81.2647C511.011 82.0097 508.305 82.1581 505.613 81.7831C502.922 81.4081 500.36 80.5257 498.049 79.0945C495.78 77.7862 493.86 76.0592 492.291 73.9142C490.657 71.8184 489.52 69.5002 488.882 66.9595C488.137 64.3455 487.989 61.6398 488.364 58.9481C488.739 56.2568 489.621 53.6944 491.052 51.3836C492.361 49.1142 494.087 47.1949 496.232 45.6259C498.328 43.9914 500.646 42.8551 503.187 42.2167ZM520.431 63.4162C521.357 56.7734 516.724 50.6407 510.081 49.7154C503.439 48.7897 497.306 53.4227 496.38 60.0652C495.455 66.7076 500.088 72.8407 506.731 73.766C513.373 74.6916 519.506 70.0587 520.431 63.4162ZM363.667 50.9351C361.401 50.8545 359.52 52.5917 359.422 54.8025L358.497 77.8623L344.63 59.4148C343.292 57.6516 340.758 57.2914 338.939 58.6456C337.176 59.9827 336.815 62.5176 338.17 64.336L358.847 91.8037C359.864 93.1219 361.626 93.7231 363.282 93.2068C364.937 92.6905 366.046 91.1943 366.133 89.5319L367.534 55.18C367.615 52.9139 365.878 51.033 363.667 50.9351ZM561.028 51.7578C558.874 51.0797 556.627 52.2495 555.948 54.4L546.207 85.2776C545.528 87.428 546.699 89.6765 548.848 90.3549C551.002 91.0333 553.249 89.8632 553.928 87.7128L556.883 78.3393L564.052 80.6005C567.415 81.6616 571.032 81.3471 574.204 79.7415C577.34 78.0633 579.674 75.2828 580.736 71.9194C581.795 68.5557 581.481 64.9406 579.877 61.7662C578.197 58.6301 575.418 56.298 572.054 55.2368L561.028 51.7578ZM562.451 60.6949L569.619 62.9563C572.376 63.8259 573.886 66.7272 573.015 69.4842C572.145 72.2409 569.244 73.7508 566.487 72.8811L559.319 70.6198L562.451 60.6949ZM291.368 83.4216C290.391 81.3894 291.23 78.9976 293.262 78.0206L309.937 70.0048C311.969 69.0279 314.361 69.8668 315.338 71.8988C316.315 73.9311 315.476 76.3233 313.444 77.2999L300.417 83.5624L303.924 90.8576L316.951 84.5953C318.983 83.6184 321.375 84.4572 322.352 86.4895C323.329 88.5217 322.49 90.9136 320.458 91.8906L307.431 98.1529L310.937 105.448L323.965 99.1858C325.997 98.2089 328.389 99.0477 329.366 101.08C330.343 103.112 329.504 105.504 327.472 106.481L310.797 114.497C308.765 115.474 306.373 114.635 305.396 112.603L291.368 83.4216ZM607.324 72.6293C608.311 70.6021 610.706 69.7751 612.737 70.7621L629.371 78.8613C631.398 79.8484 632.225 82.2444 631.235 84.2718C630.249 86.2991 627.853 87.126 625.827 86.1389L612.831 79.8115L609.286 87.0891L622.282 93.4165C624.309 94.4036 625.136 96.7997 624.15 98.827C623.164 100.854 620.768 101.681 618.738 100.694L605.746 94.3667L602.201 101.644L615.197 107.972C617.224 108.959 618.051 111.355 617.065 113.382C616.075 115.41 613.68 116.236 611.653 115.249L595.019 107.15C592.992 106.163 592.164 103.767 593.151 101.74L607.324 72.6293ZM659.557 96.4046C657.7 95.1282 655.207 95.591 653.928 97.4499L635.603 124.14C634.324 125.999 634.787 128.491 636.647 129.768C638.504 131.044 640.997 130.581 642.273 128.722L647.837 120.62L652.27 123.664L652.057 138.174C652.006 140.595 653.972 142.226 656.056 142.255C658.268 142.301 660.139 140.499 660.135 138.253L660.32 127.158C661.508 127.271 662.744 127.208 663.994 127.016C667.484 126.327 670.526 124.348 672.524 121.44C674.522 118.533 675.274 114.983 674.667 111.479C673.977 107.989 671.997 104.947 669.088 102.951L659.557 96.4046ZM243.286 113.784C242.016 111.921 242.487 109.43 244.35 108.16L250.083 104.252C252.328 102.721 254.818 101.652 257.491 101.16C260.051 100.604 262.633 100.593 265.252 101.047C267.855 101.581 270.255 102.534 272.435 103.986C274.743 105.422 276.671 107.326 278.202 109.571C279.733 111.816 280.801 114.307 281.294 116.98C281.85 119.54 281.861 122.122 281.407 124.74C280.873 127.344 279.92 129.743 278.467 131.923C277.032 134.231 275.128 136.16 272.882 137.69L267.15 141.599C265.287 142.869 262.797 142.398 261.526 140.535L243.286 113.784ZM658.311 105.368L664.507 109.623C666.892 111.26 667.488 114.475 665.851 116.858C664.214 119.241 660.999 119.839 658.618 118.202L652.422 113.947L658.311 105.368ZM254.643 110.939L252.254 112.568L265.934 132.631L268.322 131.003C270.998 129.179 272.813 126.401 273.454 123.236C274.014 120.055 273.338 116.806 271.514 114.131C269.69 111.456 266.913 109.641 263.747 109C260.566 108.44 257.318 109.115 254.643 110.939ZM460.5 809.591C372.754 809.591 291.529 781.673 225.223 734.235C382.075 714.773 538.927 714.771 695.778 734.231C629.472 781.673 548.245 809.591 460.5 809.591Z" fill="#736635"/>
</svg>
