<svg width="610" height="610" viewBox="0 0 610 610" fill="none" xmlns="http://www.w3.org/2000/svg">
<g clip-path="url(#clip0_21_18)">
<path fill-rule="evenodd" clip-rule="evenodd" d="M349.173 83.2959V18.0089C349.173 8.06305 357.228 0 367.189 0C377.135 0 385.198 8.05566 385.198 18.0089V83.2959C385.198 93.2418 377.142 101.312 367.189 101.312C357.228 101.312 349.165 93.2418 349.173 83.2959ZM288.398 91.7725V26.4855C288.398 16.5396 296.453 8.47651 306.407 8.47651C316.36 8.47651 324.423 16.5322 324.423 26.4855V91.7799C324.423 101.726 316.367 109.796 306.407 109.796C296.461 109.796 288.398 101.726 288.398 91.7725ZM224.81 100.256V34.9694C224.81 25.0235 232.873 16.953 242.826 16.953C252.779 16.953 260.842 25.0161 260.842 34.9694V100.256C260.842 110.202 252.779 118.273 242.826 118.273C232.873 118.273 224.81 110.202 224.81 100.256ZM398.097 148.775C415.227 148.502 431.249 154.918 443.174 166.843C455.084 178.775 461.507 194.768 461.242 211.913L458.355 393.184C458.081 410.322 451.148 426.536 438.847 438.845C426.524 451.161 410.309 458.087 393.172 458.36L253.643 460.575L314.602 399.615L368.946 413.379L413.366 368.958L398.303 309.482L338.836 294.427L294.416 338.854L308.164 393.199L240.596 460.775L211.889 461.233C194.766 461.506 178.743 455.097 166.819 443.172C154.909 431.232 148.493 415.239 148.766 398.102L151.638 216.824C151.904 199.686 158.844 183.471 171.146 171.162C183.462 158.846 199.669 151.92 216.799 151.647L358.949 149.388L296.66 211.662L242.317 197.914L197.889 242.327L212.944 301.81L272.434 316.858L316.847 272.438L303.091 218.086L371.996 149.188L398.097 148.775ZM410.723 256.26L399.212 210.791L353.721 199.28L319.749 233.245L329.776 272.836L272.833 329.787L233.242 319.767L199.27 353.733L210.788 399.209L256.279 410.728L290.244 376.748L280.217 337.164L337.167 280.213L376.758 290.24L410.723 256.26ZM288.036 226.718L298.432 267.771L267.775 298.428L226.715 288.039L216.334 246.993L246.99 216.329L288.036 226.718ZM118.271 242.821C118.271 252.767 110.208 260.83 100.255 260.83H34.9763C25.0232 260.83 16.9602 252.775 16.9602 242.821C16.9602 232.868 25.0232 224.805 34.9763 224.805H100.255C110.201 224.805 118.264 232.861 118.271 242.821ZM610 242.821C610 252.767 601.944 260.83 591.991 260.83H526.712C516.767 260.83 508.704 252.775 508.704 242.821C508.704 232.868 516.759 224.805 526.712 224.805H591.991C601.944 224.805 610.007 232.861 610 242.821ZM109.787 306.403C109.787 316.349 101.725 324.419 91.7714 324.419H26.4999C16.5468 324.419 8.4838 316.349 8.4838 306.403C8.4838 296.457 16.5468 288.394 26.4999 288.394H91.7714C101.725 288.394 109.787 296.457 109.787 306.403ZM601.531 306.403C601.531 316.349 593.468 324.419 583.515 324.419H518.236C508.29 324.419 500.227 316.349 500.227 306.403C500.227 296.457 508.283 288.394 518.236 288.394H583.515C593.461 288.394 601.531 296.457 601.531 306.403ZM323.234 384.552L312.852 343.514L343.509 312.849L384.54 323.23L394.944 364.277L364.287 394.949L323.234 384.552ZM101.311 367.171C101.311 377.117 93.2481 385.187 83.295 385.187H18.0161C8.06295 385.187 0 377.117 0 367.171C0 357.225 8.06295 349.162 18.0161 349.162H83.295C93.2481 349.162 101.311 357.225 101.311 367.171ZM593.047 367.171C593.047 377.117 584.984 385.187 575.031 385.187H509.752C499.806 385.187 491.743 377.117 491.743 367.171C491.743 357.225 499.799 349.162 509.752 349.162H575.031C584.984 349.162 593.047 357.225 593.047 367.171ZM385.198 509.751V575.031C385.198 584.976 377.142 593.04 367.189 593.04C357.236 593.04 349.173 584.984 349.173 575.031V509.751C349.173 499.805 357.228 491.735 367.189 491.735C377.142 491.735 385.198 499.805 385.198 509.751ZM324.423 518.227V583.507C324.423 593.453 316.367 601.516 306.407 601.516C296.461 601.516 288.398 593.46 288.398 583.507V518.227C288.398 508.282 296.453 500.211 306.407 500.211C316.367 500.211 324.43 508.281 324.423 518.227ZM260.842 526.711V591.984C260.842 601.937 252.779 610 242.826 610C232.873 610 224.81 601.944 224.81 591.984V526.711C224.81 516.758 232.873 508.695 242.826 508.695C252.779 508.695 260.842 516.758 260.842 526.711ZM98.9214 98.9119C125.809 72.024 156.687 51.2057 191.556 36.457C196.633 34.3095 201.744 32.313 206.889 30.4675L206.615 33.008L206.51 34.9694V54.5633C204.43 55.3834 202.357 56.2307 200.29 57.1052C168.105 70.7179 139.6 89.9377 114.774 114.764C89.9474 139.591 70.7278 168.097 57.1148 200.281C56.24 202.35 55.3923 204.424 54.5718 206.505H34.9765L31.9102 206.764L30.4296 207.015C32.2885 201.825 34.3011 196.67 36.4672 191.548C51.2156 156.679 72.0336 125.8 98.9214 98.9119ZM418.45 36.457C453.319 51.2055 484.196 72.0238 511.083 98.9119C537.971 125.8 558.79 156.679 573.538 191.548C575.633 196.502 577.585 201.487 579.393 206.505H555.433C554.612 204.424 553.764 202.35 552.889 200.281C539.278 168.097 520.058 139.591 495.231 114.764C470.406 89.9378 441.9 70.718 409.715 57.1051C407.649 56.2312 405.577 55.3844 403.498 54.5647V30.6047C408.514 32.4119 413.498 34.3626 418.45 36.457ZM573.538 418.444C558.79 453.314 537.971 484.192 511.083 511.079C484.196 537.967 453.319 558.786 418.45 573.535C413.373 575.682 408.263 577.678 403.119 579.523L403.392 576.985L403.498 575.03V568.564L403.565 555.4C405.621 554.589 407.671 553.751 409.715 552.886C441.9 539.274 470.406 520.054 495.231 495.227C520.058 470.401 539.278 441.895 552.889 409.71C553.764 407.642 554.612 405.568 555.432 403.488H575.031L578.099 403.228L579.576 402.977C577.717 408.167 575.704 413.323 573.538 418.444ZM191.556 573.535C156.687 558.786 125.809 537.967 98.9214 511.079C72.0336 484.192 51.2156 453.314 36.4672 418.444C34.3721 413.491 32.4208 408.505 30.6131 403.488H54.5724C55.3927 405.568 56.2403 407.642 57.1149 409.71C70.7279 441.895 89.9474 470.401 114.774 495.226C139.6 520.054 168.105 539.274 200.29 552.886C202.357 553.76 204.43 554.607 206.51 555.428V579.388C201.493 577.581 196.509 575.63 191.556 573.535Z" fill="white"/>
</g>
<defs>
<clipPath id="clip0_21_18">
<rect width="610" height="610" fill="white"/>
</clipPath>
</defs>
</svg>
