<svg width="150px" viewBox="0 0 369.9130434782609 40.08735439068225" class="looka-1j8o68f" xmlns="http://www.w3.org/2000/svg" >
    <g fill="#ffd700" featurekey="nameFeature-0" id="SvgjsG1130">
    <path d="M32.813 27.344 c-0.98961 2.3959 -2.3438 4.375 -4.0625 5.9375 c-1.7709 1.6666 -3.8542 2.9688 -6.2501 3.9063 s-5.0781 1.4063 -8.0469 1.4063 l-8.6719 0 l0 -5.9375 l8.5938 0 c1.9791 0 3.776 -0.3125 5.3906 -0.9375 c1.5625 -0.625 2.9166 -1.5104 4.0625 -2.6563 s2.0313 -2.5 2.6563 -4.0625 s0.9375 -3.2813 0.9375 -5.1563 c0 -1.8229 -0.3125 -3.5156 -0.9375 -5.0781 c-0.625 -1.6146 -1.5104 -2.9427 -2.6563 -3.9844 c-1.0416 -1.0938 -2.3958 -1.9791 -4.0624 -2.6563 c-1.6666 -0.625 -3.4635 -0.9375 -5.3906 -0.9375 l-8.5938 0 l0 -5.9375 l8.6719 0 c2.7604 0 5.4166 0.49477 7.9688 1.4844 c2.3959 0.88539 4.5052 2.2135 6.3281 3.9844 c1.7709 1.6146 3.125 3.5938 4.0625 5.9375 c0.98961 2.3959 1.4844 4.8438 1.4844 7.3438 c0 2.7084 -0.49477 5.1563 -1.4844 7.3438 z M46.0938 1.4059999999999988 l27.813 0 l0 5.9375 l-27.813 0 l0 -5.9375 z M46.0938 32.6562 l27.734 0 l0 5.9375 l-27.734 0 l0 -5.9375 z M46.0938 16.875 l25.078 0 l0 5.8594 l-25.078 0 l0 -5.8594 z M88.9844 1.328000000000003 l-7.0313 0 l13.594 37.266 l7.1094 0 l-7.8906 -22.344 z M117.73400000000001 1.328000000000003 l-6.875 0 l-8.125 19.844 l3.3594 8.9063 z M153.438 8.75 c-0.67711 -1.4584 -1.6147 -2.7605 -2.8126 -3.9063 c-1.25 -1.0938 -2.7344 -1.9531 -4.4531 -2.5781 c-1.875 -0.57289 -3.8541 -0.85938 -5.9375 -0.85938 l-14.609 0 l0 5.8594 l14.063 0 c2.3438 0 4.2969 0.57289 5.8594 1.7188 c1.4584 1.0938 2.1875 2.7604 2.1875 5 c0 2.0313 -0.70313 3.6719 -2.1094 4.9219 c-1.5104 1.1979 -3.4895 1.7969 -5.9374 1.7969 l-14.063 0 l0 17.891 l6.4844 0 l0 -11.953 l7.3438 0 c1.9271 0 3.8802 -0.28648 5.8594 -0.85938 c1.8229 -0.57289 3.3854 -1.3802 4.6875 -2.4218 c1.3541 -1.0416 2.4219 -2.3698 3.2031 -3.9844 c0.78125 -1.5625 1.1719 -3.3854 1.1719 -5.4688 c0 -1.9791 -0.3125 -3.6979 -0.9375 -5.1563 z M195.781 38.5937 l-10.078 -14.063 c1.3541 -0.41664 2.552 -0.91141 3.5937 -1.4843 c1.1459 -0.72914 2.0834 -1.5364 2.8125 -2.4218 c0.83336 -0.98961 1.4323 -2.0573 1.797 -3.2032 c0.46875 -1.25 0.70313 -2.6563 0.70313 -4.2188 c0 -1.8229 -0.3125 -3.4635 -0.9375 -4.9219 c-0.625 -1.4063 -1.5365 -2.6302 -2.7344 -3.6719 c-1.1459 -0.98961 -2.6042 -1.7709 -4.3751 -2.3438 c-1.8229 -0.57289 -3.75 -0.85938 -5.7813 -0.85938 l-16.563 0 l0 5.9375 l16.016 0 c2.4479 0 4.3489 0.52086 5.703 1.5625 s2.0313 2.6041 2.0313 4.6875 c0 1.9271 -0.67711 3.4375 -2.0313 4.5313 c-1.3541 1.1459 -3.2291 1.7188 -5.625 1.7188 l-16.094 0 l0 18.75 l6.4844 0 l0 -12.969 l8.2031 0 l9.1406 12.969 l7.7344 0 l0 0 z M230.703 38.5937 l7.0313 0 l-13.594 -37.266 l-7.1094 0 l7.8906 22.266 z M201.9531 38.5937 l6.875 0 l8.125 -19.844 l-3.3594 -8.9063 z M263.281 7.5 l11.797 0 l0 -6.0938 l-30.156 0 l0 6.0938 l18.359 0 z M256.719 13.594000000000001 l6.5625 0 l0 25 l-6.5625 0 l0 -25 z M286.0938 1.4059999999999988 l27.813 0 l0 5.9375 l-27.813 0 l0 -5.9375 z M286.0938 32.6562 l27.734 0 l0 5.9375 l-27.734 0 l0 -5.9375 z M286.0938 16.875 l25.078 0 l0 5.8594 l-25.078 0 l0 -5.8594 z M344.922 1.4059999999999988 c-2.8646 0 -5.5209 0.4686 -7.9688 1.4061 c-2.3959 0.9375 -4.4792 2.2396 -6.2501 3.9063 c-1.7188 1.5625 -3.0729 3.5416 -4.0625 5.9375 c-0.83336 2.0313 -1.3021 4.2448 -1.4063 6.6406 l0 2.3438 l6.875 0 l0 -2.3438 c0.10414 -1.7709 0.39063 -3.2031 0.85938 -4.2969 c0.625 -1.5104 1.4844 -2.8645 2.5781 -4.0624 c1.3021 -1.1979 2.6563 -2.0833 4.0625 -2.6562 c1.6146 -0.625 3.3855 -0.9375 5.3126 -0.9375 l9.8438 0 l0 -5.9375 l-9.8438 0 z M347.891 18.984 l0.000076294 1.4843 l0.078125 0 c-0.10414 1.6666 -0.41664 3.2031 -0.9375 4.6094 c-0.67711 1.6146 -1.5365 2.9427 -2.5781 3.9844 c-1.1459 1.1459 -2.5 2.0313 -4.0625 2.6563 c-1.6146 0.625 -3.3855 0.9375 -5.3126 0.9375 l-9.8438 0 l0 5.9375 l9.8438 0 c2.8646 0 5.5209 -0.46875 7.9688 -1.4063 c2.3959 -0.9375 4.4792 -2.2396 6.2501 -3.9063 c1.8229 -1.8229 3.177 -3.802 4.0624 -5.9374 c0.9375 -2.0834 1.4063 -4.375 1.4063 -6.875 l0 -1.4844 l-6.875 0 z"></path>
    </g>
</svg>