<svg xmlns="http://www.w3.org/2000/svg" class="svg-standalone-icon" width="100%" viewBox="218.66702138061623 115.00000000000003 112.66595723876753 141.50845010315842"><g data-paper-data="{&quot;isIcon&quot;:&quot;true&quot;,&quot;iconType&quot;:&quot;icon&quot;,&quot;rawIconId&quot;:&quot;e2770590-ed55-4e4a-8368-8b5b2ef831ae&quot;,&quot;selectedEffects&quot;:{&quot;container&quot;:&quot;&quot;,&quot;transformation&quot;:&quot;&quot;,&quot;pattern&quot;:&quot;&quot;},&quot;isDetailed&quot;:false,&quot;fillRule&quot;:&quot;nonzero&quot;,&quot;bounds&quot;:{&quot;x&quot;:218.66702138061623,&quot;y&quot;:115.00000000000003,&quot;width&quot;:112.66595723876753,&quot;height&quot;:141.50845010315842},&quot;iconStyle&quot;:&quot;standalone&quot;,&quot;suitableAsStandaloneIcon&quot;:true}" fill-rule="nonzero"><path d="M322.9957,175.16363v-13.74525v-8.78794c0,-16.2239 -13.06925,-29.29315 -29.06782,-29.29315h-41.91174h-0.45066h-22.53319v124.83389h22.98386v-83.37282v0v-18.25189h35.37711c6.98529,0 12.61858,5.6333 12.61858,12.39325v4.9573v4.9573c0,6.75996 -5.6333,12.39325 -12.61858,12.39325h-31.0958l13.29458,23.20919h24.33584c15.99856,0 29.06782,-13.06925 29.06782,-29.29315zM286.26661,206.7101c-1.35199,0 -2.70399,0.67599 -3.37998,2.02799h-15.77323l-10.81593,-18.92788v62.64227h-31.54647v-74.13421h-4.05597v78.19018h39.65842v-51.15034l4.50664,7.43595h18.02656c0.67599,1.12666 2.02799,2.02799 3.37998,2.02799c2.25332,0 4.05597,-1.80265 4.05597,-4.05597c0,-2.25332 -1.80265,-4.05597 -4.05597,-4.05597zM295.73054,168.85433v-9.91461c0,-4.50664 -3.60531,-8.33728 -8.33728,-8.33728h-31.0958v18.47722v0v8.11195h31.0958c4.73197,0 8.33728,-3.83064 8.33728,-8.33728zM260.35343,154.88375h27.03983c2.25332,0 4.28131,1.80265 4.28131,4.05597v9.91461c0,2.25332 -2.02799,4.05597 -4.28131,4.05597h-27.03983zM293.92789,115h-73.23288v42.81306c-1.12666,0.67599 -2.02799,2.02799 -2.02799,3.37998c0,2.25332 1.80265,4.05597 4.05597,4.05597c2.25332,0 3.83064,-1.80265 3.83064,-4.05597c0,-1.35199 -0.67599,-2.47865 -1.80265,-3.37998v-38.53176h69.1769c18.25189,0 33.34913,14.87191 33.34913,33.34913v22.53319c0,15.32257 -10.36527,28.39182 -24.56118,32.22246v4.28131c16.44923,-3.83064 28.61715,-18.70255 28.61715,-36.50377v-22.53319c0,-20.73054 -16.67456,-37.63043 -37.4051,-37.63043z" data-paper-data="{&quot;isPathIcon&quot;:true}" style="fill: rgb(255, 255, 255);"></path></g></svg>