<svg xmlns="http://www.w3.org/2000/svg" class="svg-standalone-icon" width="100%" viewBox="212.7236500227777 114.99999999999997 124.55269995444456 134.51767516855884"><g data-paper-data="{&quot;isIcon&quot;:&quot;true&quot;,&quot;iconType&quot;:&quot;icon&quot;,&quot;rawIconId&quot;:&quot;fc42501b-8fa1-44e9-af6b-fce61fc3ff29&quot;,&quot;selectedEffects&quot;:{&quot;container&quot;:&quot;&quot;,&quot;transformation&quot;:&quot;&quot;,&quot;pattern&quot;:&quot;&quot;},&quot;isDetailed&quot;:false,&quot;fillRule&quot;:&quot;nonzero&quot;,&quot;bounds&quot;:{&quot;x&quot;:212.7236500227777,&quot;y&quot;:114.99999999999997,&quot;width&quot;:124.55269995444456,&quot;height&quot;:134.51767516855884},&quot;iconStyle&quot;:&quot;standalone&quot;,&quot;suitableAsStandaloneIcon&quot;:true}" fill-rule="nonzero"><path d="M227.98757,225.12951c0,-3.40985 2.76423,-6.17408 6.17408,-6.17408c3.40985,0 6.17408,2.76423 6.17408,6.17408c0,3.40985 -2.76423,6.17408 -6.17408,6.17408c-3.40985,0 -6.17408,-2.76423 -6.17408,-6.17408zM230.56347,246.05764c0,-1.61843 1.31199,-2.93042 2.93042,-2.93042c1.61843,0 2.93042,1.31199 2.93042,2.93042c0,1.61843 -1.31199,2.93042 -2.93042,2.93042c-1.61843,0 -2.93042,-1.31199 -2.93042,-2.93042zM234.59784,234.68634c0,-1.52098 1.233,-2.75399 2.75399,-2.75399c1.52098,0 2.75399,1.233 2.75399,2.75399c0,1.52098 -1.233,2.75399 -2.75399,2.75399c-1.52098,0 -2.75399,-1.233 -2.75399,-2.75399zM237.20275,243.39496c0,-3.16059 2.56217,-5.72277 5.72277,-5.72277c3.16059,0 5.72277,2.56217 5.72277,5.72277c0,3.16059 -2.56217,5.72277 -5.72277,5.72277c-3.16059,0 -5.72277,-2.56217 -5.72277,-5.72277zM240.97086,221.58947c0,-2.84835 2.30905,-5.1574 5.1574,-5.1574c2.84835,0 5.1574,2.30905 5.1574,5.1574c0,2.84835 -2.30905,5.1574 -5.1574,5.1574c-2.84835,0 -5.1574,-2.30905 -5.1574,-5.1574zM243.67161,232.25172c0,-2.52046 2.04324,-4.56369 4.56369,-4.56369c2.52046,0 4.56369,2.04324 4.56369,4.56369c0,2.52046 -2.04324,4.56369 -4.56369,4.56369c-2.52046,0 -4.56369,-2.04324 -4.56369,-4.56369zM223.85523,177.74835c0,-2.8519 2.31192,-5.16382 5.16382,-5.16382c2.8519,0 5.16382,2.31192 5.16382,5.16382c0,2.8519 -2.31192,5.16382 -5.16382,5.16382c-2.8519,0 -5.16382,-2.31192 -5.16382,-5.16382zM253.54414,179.73326c0,-3.3792 2.73939,-6.11858 6.11858,-6.11858c3.3792,0 6.11858,2.73939 6.11858,6.11858c0,3.3792 -2.73939,6.11858 -6.11858,6.11858c-3.3792,0 -6.11858,-2.73939 -6.11858,-6.11858zM239.8422,186.40497c0,-3.22298 2.61274,-5.83573 5.83573,-5.83573c3.22298,0 5.83573,2.61274 5.83573,5.83573c0,3.22298 -2.61274,5.83573 -5.83573,5.83573c-3.22298,0 -5.83573,-2.61274 -5.83573,-5.83573zM223.85538,190.8679c0,-3.18296 2.5803,-5.76326 5.76326,-5.76326c3.18296,0 5.76326,2.5803 5.76326,5.76326c0,3.18296 -2.5803,5.76326 -5.76326,5.76326c-3.18296,0 -5.76326,-2.5803 -5.76326,-5.76326zM253.32443,190.52337c0,-2.10706 1.70811,-3.81518 3.81518,-3.81518c2.10706,0 3.81518,1.70811 3.81518,3.81518c0,2.10706 -1.70811,3.81518 -3.81518,3.81518c-2.10706,0 -3.81518,-1.70811 -3.81518,-3.81518zM309.03229,190.3447c0,-3.26986 2.65074,-5.92061 5.92061,-5.92061c3.26986,0 5.92061,2.65074 5.92061,5.92061c0,3.26986 -2.65074,5.92061 -5.92061,5.92061c-3.26986,0 -5.92061,-2.65074 -5.92061,-5.92061zM314.44664,173.73075c0,-3.3862 2.74506,-6.13126 6.13126,-6.13126c3.3862,0 6.13126,2.74506 6.13126,6.13126c0,3.3862 -2.74506,6.13126 -6.13126,6.13126c-3.3862,0 -6.13126,-2.74506 -6.13126,-6.13126zM320.20374,184.59506c0,-1.62267 1.31543,-2.93811 2.93811,-2.93811c1.62267,0 2.93811,1.31543 2.93811,2.93811c0,1.62267 -1.31543,2.93811 -2.93811,2.93811c-1.62267,0 -2.93811,-1.31543 -2.93811,-2.93811zM322.97007,162.34506c0,-3.95057 3.20257,-7.15314 7.15314,-7.15314c3.95057,0 7.15314,3.20257 7.15314,7.15314c0,3.95057 -3.20257,7.15314 -7.15314,7.15314c-3.95057,0 -7.15314,-3.20257 -7.15314,-7.15314zM326.18192,179.21584c0,-1.40471 1.13874,-2.54345 2.54345,-2.54345c1.40471,0 2.54345,1.13874 2.54345,2.54345c0,1.40471 -1.13874,2.54345 -2.54345,2.54345c-1.40471,0 -2.54345,-1.13874 -2.54345,-2.54345zM329.16778,173.71253c0,-1.43452 1.16291,-2.59743 2.59743,-2.59743c1.43452,0 2.59743,1.16291 2.59743,2.59743c0,1.43452 -1.16291,2.59743 -2.59743,2.59743c-1.43452,0 -2.59743,-1.16291 -2.59743,-2.59743zM251.91506,225.41577c0,-3.75803 3.04648,-6.80452 6.80452,-6.80452c3.75803,0 6.80452,3.04648 6.80452,6.80452c0,3.75803 -3.04648,6.80452 -6.80452,6.80452c-3.75803,0 -6.80452,-3.04648 -6.80452,-6.80452zM251.4111,242.12795c0,-4.0808 3.30815,-7.38895 7.38895,-7.38895c4.0808,0 7.38895,3.30815 7.38895,7.38895c0,4.0808 -3.30815,7.38895 -7.38895,7.38895c-4.0808,0 -7.38895,-3.30815 -7.38895,-7.38895zM266.59896,232.26574c0,-3.73708 3.0295,-6.76657 6.76657,-6.76657c3.73708,0 6.76657,3.0295 6.76657,6.76657c0,3.73708 -3.0295,6.76657 -6.76657,6.76657c-3.73708,0 -6.76657,-3.0295 -6.76657,-6.76657zM270.85038,245.11011c0,-2.43423 1.97333,-4.40757 4.40757,-4.40757c2.43423,0 4.40757,1.97333 4.40757,4.40757c0,2.43423 -1.97333,4.40757 -4.40757,4.40757c-2.43423,0 -4.40757,-1.97333 -4.40757,-4.40757zM214.11927,244.26091c0,-1.42258 1.15323,-2.5758 2.5758,-2.5758c1.42258,0 2.5758,1.15323 2.5758,2.5758c0,1.42258 -1.15323,2.5758 -2.5758,2.5758c-1.42258,0 -2.5758,-1.15323 -2.5758,-2.5758zM214.192,231.34255c0,-2.44033 1.97827,-4.4186 4.4186,-4.4186c2.44033,0 4.4186,1.97827 4.4186,4.4186c0,2.44033 -1.97827,4.4186 -4.4186,4.4186c-2.44033,0 -4.4186,-1.97827 -4.4186,-4.4186zM219.60097,240.41843c0,-3.16059 2.56217,-5.72277 5.72277,-5.72277c3.16059,0 5.72277,2.56217 5.72277,5.72277c0,3.16059 -2.56217,5.72277 -5.72277,5.72277c-3.16059,0 -5.72277,-2.56217 -5.72277,-5.72277zM224.00076,218.86168c0,-1.40471 1.13874,-2.54345 2.54345,-2.54345c1.40471,0 2.54345,1.13874 2.54345,2.54345c0,1.40471 -1.13874,2.54345 -2.54345,2.54345c-1.40471,0 -2.54345,-1.13874 -2.54345,-2.54345zM260.94962,195.59723c0,-3.74443 3.03546,-6.77989 6.77989,-6.77989c3.74443,0 6.77989,3.03546 6.77989,6.77989c0,3.74443 -3.03546,6.77989 -6.77989,6.77989c-3.74443,0 -6.77989,-3.03546 -6.77989,-6.77989zM241.62618,199.00095c0,-3.16059 2.56217,-5.72277 5.72277,-5.72277c3.16059,0 5.72277,2.56217 5.72277,5.72277c0,3.16059 -2.56217,5.72277 -5.72277,5.72277c-3.16059,0 -5.72277,-2.56217 -5.72277,-5.72277zM232.58886,207.87192c0,-3.18325 2.58053,-5.76379 5.76379,-5.76379c3.18325,0 5.76379,2.58053 5.76379,5.76379c0,3.18325 -2.58053,5.76379 -5.76379,5.76379c-3.18325,0 -5.76379,-2.58053 -5.76379,-5.76379zM250.35104,208.94554c0,-3.20996 2.60218,-5.81215 5.81215,-5.81215c3.20996,0 5.81215,2.60218 5.81215,5.81215c0,3.20996 -2.60218,5.81215 -5.81215,5.81215c-3.20996,0 -5.81215,-2.60218 -5.81215,-5.81215zM260.76455,215.21063c0,-1.40471 1.13874,-2.54345 2.54345,-2.54345c1.40471,0 2.54345,1.13874 2.54345,2.54345c0,1.40471 -1.13874,2.54345 -2.54345,2.54345c-1.40471,0 -2.54345,-1.13874 -2.54345,-2.54345zM226.82243,202.52888c0,-1.70307 1.38061,-3.08368 3.08368,-3.08368c1.70307,0 3.08368,1.38061 3.08368,3.08368c0,1.70307 -1.38061,3.08368 -3.08368,3.08368c-1.70307,0 -3.08368,-1.38061 -3.08368,-3.08368zM223.85463,209.83943c0,-1.57294 1.27512,-2.84806 2.84806,-2.84806c1.57294,0 2.84806,1.27512 2.84806,2.84806c0,1.57294 -1.27512,2.84806 -2.84806,2.84806c-1.57294,0 -2.84806,-1.27512 -2.84806,-2.84806zM272.37676,185.97579c0,-2.90827 2.35762,-5.2659 5.2659,-5.2659c2.90827,0 5.2659,2.35762 5.2659,5.2659c0,2.90827 -2.35762,5.2659 -5.2659,5.2659c-2.90827,0 -5.2659,-2.35762 -5.2659,-5.2659zM276.30672,197.59648c0,-3.40969 2.7641,-6.1738 6.1738,-6.1738c3.40969,0 6.1738,2.7641 6.1738,6.1738c0,3.40969 -2.7641,6.1738 -6.1738,6.1738c-3.40969,0 -6.1738,-2.7641 -6.1738,-6.1738zM284.04754,186.43546c0,-3.16059 2.56217,-5.72277 5.72277,-5.72277c3.16059,0 5.72277,2.56217 5.72277,5.72277c0,3.16059 -2.56217,5.72277 -5.72277,5.72277c-3.16059,0 -5.72277,-2.56217 -5.72277,-5.72277zM289.80135,173.84854c0,-3.54821 2.87639,-6.4246 6.4246,-6.4246c3.54821,0 6.4246,2.87639 6.4246,6.4246c0,3.54821 -2.87639,6.4246 -6.4246,6.4246c-3.54821,0 -6.4246,-2.87639 -6.4246,-6.4246zM293.27421,198.70783c0,-1.86725 1.5137,-3.38095 3.38095,-3.38095c1.86725,0 3.38095,1.5137 3.38095,3.38095c0,1.86725 -1.5137,3.38095 -3.38095,3.38095c-1.86725,0 -3.38095,-1.5137 -3.38095,-3.38095zM293.1171,163.74913c0,-1.40471 1.13874,-2.54345 2.54345,-2.54345c1.40471,0 2.54345,1.13874 2.54345,2.54345c0,1.40471 -1.13874,2.54345 -2.54345,2.54345c-1.40471,0 -2.54345,-1.13874 -2.54345,-2.54345zM296.442,190.06343c0,-3.16059 2.56217,-5.72277 5.72277,-5.72277c3.16059,0 5.72277,2.56217 5.72277,5.72277c0,3.16059 -2.56217,5.72277 -5.72277,5.72277c-3.16059,0 -5.72277,-2.56217 -5.72277,-5.72277zM301.81956,165.27755c0,-3.20878 2.60123,-5.81001 5.81001,-5.81001c3.20878,0 5.81001,2.60123 5.81001,5.81001c0,3.20878 -2.60123,5.81001 -5.81001,5.81001c-3.20878,0 -5.81001,-2.60123 -5.81001,-5.81001zM305.05647,178.76622c0,-2.5832 2.0941,-4.67731 4.67731,-4.67731c2.5832,0 4.67731,2.0941 4.67731,4.67731c0,2.5832 -2.0941,4.67731 -4.67731,4.67731c-2.5832,0 -4.67731,-2.0941 -4.67731,-4.67731zM246.81469,155.41308c0,-2.17413 1.76248,-3.93661 3.93661,-3.93661c2.17413,0 3.93661,1.76248 3.93661,3.93661c0,2.17413 -1.76248,3.93661 -3.93661,3.93661c-2.17413,0 -3.93661,-1.76248 -3.93661,-3.93661zM234.63464,158.37149c0,-3.16059 2.56217,-5.72277 5.72277,-5.72277c3.16059,0 5.72277,2.56217 5.72277,5.72277c0,3.16059 -2.56217,5.72277 -5.72277,5.72277c-3.16059,0 -5.72277,-2.56217 -5.72277,-5.72277zM251.71166,164.27444c0,-3.58906 2.90951,-6.49857 6.49857,-6.49857c3.58906,0 6.49857,2.90951 6.49857,6.49857c0,3.58906 -2.90951,6.49857 -6.49857,6.49857c-3.58906,0 -6.49857,-2.90951 -6.49857,-6.49857zM233.61723,171.52078c0,-3.238 2.62491,-5.86291 5.86291,-5.86291c3.238,0 5.86291,2.62491 5.86291,5.86291c0,3.238 -2.62491,5.86291 -5.86291,5.86291c-3.238,0 -5.86291,-2.62491 -5.86291,-5.86291zM226.81791,168.611c0,-1.57378 1.27581,-2.84959 2.84959,-2.84959c1.57378,0 2.84959,1.27581 2.84959,2.84959c0,1.57378 -1.27581,2.84959 -2.84959,2.84959c-1.57378,0 -2.84959,-1.27581 -2.84959,-2.84959zM246.43624,172.57223c0,-1.79588 1.45585,-3.25174 3.25174,-3.25174c1.79588,0 3.25174,1.45585 3.25174,3.25174c0,1.79588 -1.45585,3.25174 -3.25174,3.25174c-1.79588,0 -3.25174,-1.45585 -3.25174,-3.25174zM228.51476,161.38258c0,-1.50701 1.22168,-2.72868 2.72868,-2.72868c1.50701,0 2.72868,1.22168 2.72868,2.72868c0,1.50701 -1.22168,2.72868 -2.72868,2.72868c-1.50701,0 -2.72868,-1.22168 -2.72868,-2.72868zM253.62727,139.59897c0,-1.4477 1.17359,-2.6213 2.6213,-2.6213c1.4477,0 2.6213,1.17359 2.6213,2.6213c0,1.4477 -1.17359,2.6213 -2.6213,2.6213c-1.4477,0 -2.6213,-1.17359 -2.6213,-2.6213zM253.77953,130.66652c0,-3.17366 2.57275,-5.74641 5.74641,-5.74641c3.17366,0 5.74641,2.57275 5.74641,5.74641c0,3.17366 -2.57275,5.74641 -5.74641,5.74641c-3.17366,0 -5.74641,-2.57275 -5.74641,-5.74641zM258.14424,149.0549c0,-2.62983 2.1319,-4.76172 4.76172,-4.76172c2.62983,0 4.76172,2.1319 4.76172,4.76172c0,2.62983 -2.1319,4.76172 -4.76172,4.76172c-2.62983,0 -4.76172,-2.1319 -4.76172,-4.76172zM262.33858,118.75229c0,-2.07233 1.67996,-3.75229 3.75229,-3.75229c2.07233,0 3.75229,1.67996 3.75229,3.75229c0,2.07233 -1.67996,3.75229 -3.75229,3.75229c-2.07233,0 -3.75229,-1.67996 -3.75229,-3.75229zM266.98801,132.74852c0,-2.95288 2.39378,-5.34667 5.34667,-5.34667c2.95288,0 5.34667,2.39378 5.34667,5.34667c0,2.95288 -2.39378,5.34667 -5.34667,5.34667c-2.95288,0 -5.34667,-2.39378 -5.34667,-5.34667zM270.57822,122.64711c0,-2.10706 1.70811,-3.81518 3.81518,-3.81518c2.10706,0 3.81518,1.70811 3.81518,3.81518c0,2.10706 -1.70811,3.81518 -3.81518,3.81518c-2.10706,0 -3.81518,-1.70811 -3.81518,-3.81518zM307.17623,142.34385c0,-2.12238 1.72053,-3.84291 3.84291,-3.84291c2.12238,0 3.84291,1.72053 3.84291,3.84291c0,2.12238 -1.72053,3.84291 -3.84291,3.84291c-2.12238,0 -3.84291,-1.72053 -3.84291,-3.84291zM310.08109,155.5833c0,-3.16059 2.56217,-5.72277 5.72277,-5.72277c3.16059,0 5.72277,2.56217 5.72277,5.72277c0,3.16059 -2.56217,5.72277 -5.72277,5.72277c-3.16059,0 -5.72277,-2.56217 -5.72277,-5.72277zM309.97636,132.28888c0,-3.5374 2.86763,-6.40503 6.40503,-6.40503c3.5374,0 6.40503,2.86763 6.40503,6.40503c0,3.5374 -2.86763,6.40503 -6.40503,6.40503c-3.5374,0 -6.40503,-2.86763 -6.40503,-6.40503zM319.48194,143.23509c0,-3.85607 3.12596,-6.98204 6.98204,-6.98204c3.85607,0 6.98204,3.12596 6.98204,6.98204c0,3.85607 -3.12596,6.98204 -6.98204,6.98204c-3.85607,0 -6.98204,-3.12596 -6.98204,-6.98204zM212.72365,127.28647c0,-3.27206 2.65253,-5.9246 5.9246,-5.9246c3.27206,0 5.9246,2.65253 5.9246,5.9246c0,3.27206 -2.65253,5.9246 -5.9246,5.9246c-3.27206,0 -5.9246,-2.65253 -5.9246,-5.9246zM225.14065,139.2588c0,-3.18092 2.57864,-5.75956 5.75956,-5.75956c3.18092,0 5.75956,2.57864 5.75956,5.75956c0,3.18092 -2.57864,5.75956 -5.75956,5.75956c-3.18092,0 -5.75956,-2.57864 -5.75956,-5.75956zM225.71948,127.14881c0,-2.33658 1.89417,-4.23075 4.23075,-4.23075c2.33658,0 4.23075,1.89417 4.23075,4.23075c0,2.33658 -1.89417,4.23075 -4.23075,4.23075c-2.33658,0 -4.23075,-1.89417 -4.23075,-4.23075zM227.11927,150.39773c0,-2.34248 1.89896,-4.24144 4.24144,-4.24144c2.34248,0 4.24144,1.89896 4.24144,4.24144c0,2.34248 -1.89896,4.24144 -4.24144,4.24144c-2.34248,0 -4.24144,-1.89896 -4.24144,-4.24144zM219.37229,136.32933c0,-1.40471 1.13874,-2.54345 2.54345,-2.54345c1.40471,0 2.54345,1.13874 2.54345,2.54345c0,1.40471 -1.13874,2.54345 -2.54345,2.54345c-1.40471,0 -2.54345,-1.13874 -2.54345,-2.54345zM232.39426,120.93627c0,-1.47355 1.19455,-2.6681 2.6681,-2.6681c1.47355,0 2.6681,1.19455 2.6681,2.6681c0,1.47355 -1.19455,2.6681 -2.6681,2.6681c-1.47355,0 -2.6681,-1.19455 -2.6681,-2.6681zM237.31277,129.19874c0,-3.65076 2.95952,-6.61027 6.61027,-6.61027c3.65076,0 6.61027,2.95952 6.61027,6.61027c0,3.65076 -2.95952,6.61027 -6.61027,6.61027c-3.65076,0 -6.61027,-2.95952 -6.61027,-6.61027zM240.22263,118.96297c0,-1.40471 1.13874,-2.54345 2.54345,-2.54345c1.40471,0 2.54345,1.13874 2.54345,2.54345c0,1.40471 -1.13874,2.54345 -2.54345,2.54345c-1.40471,0 -2.54345,-1.13874 -2.54345,-2.54345zM241.80727,143.34965c0,-3.16059 2.56217,-5.72277 5.72277,-5.72277c3.16059,0 5.72277,2.56217 5.72277,5.72277c0,3.16059 -2.56217,5.72277 -5.72277,5.72277c-3.16059,0 -5.72277,-2.56217 -5.72277,-5.72277zM252.82036,118.07592c0,-1.69705 1.37573,-3.07278 3.07278,-3.07278c1.69705,0 3.07278,1.37573 3.07278,3.07278c0,1.69705 -1.37573,3.07278 -3.07278,3.07278c-1.69705,0 -3.07278,-1.37573 -3.07278,-3.07278zM246.69338,119.26986c0,-1.40471 1.13874,-2.54345 2.54345,-2.54345c1.40471,0 2.54345,1.13874 2.54345,2.54345c0,1.40471 -1.13874,2.54345 -2.54345,2.54345c-1.40471,0 -2.54345,-1.13874 -2.54345,-2.54345zM279.11532,120.59889c0,-2.15104 1.74376,-3.8948 3.8948,-3.8948c2.15104,0 3.8948,1.74376 3.8948,3.8948c0,2.15104 -1.74376,3.8948 -3.8948,3.8948c-2.15104,0 -3.8948,-1.74376 -3.8948,-3.8948zM279.11516,132.8803c0,-3.40254 2.75831,-6.16084 6.16084,-6.16084c3.40254,0 6.16084,2.75831 6.16084,6.16084c0,3.40254 -2.75831,6.16084 -6.16084,6.16084c-3.40254,0 -6.16084,-2.75831 -6.16084,-6.16084zM288.05154,120.6655c0,-2.15914 1.75033,-3.90947 3.90947,-3.90947c2.15914,0 3.90947,1.75033 3.90947,3.90947c0,2.15914 -1.75033,3.90947 -3.90947,3.90947c-2.15914,0 -3.90947,-1.75033 -3.90947,-3.90947zM288.54837,142.30943c0,-3.16059 2.56217,-5.72277 5.72277,-5.72277c3.16059,0 5.72277,2.56217 5.72277,5.72277c0,3.16059 -2.56217,5.72277 -5.72277,5.72277c-3.16059,0 -5.72277,-2.56217 -5.72277,-5.72277zM294.7459,127.56428c0,-3.61873 2.93355,-6.55229 6.55229,-6.55229c3.61873,0 6.55229,2.93355 6.55229,6.55229c0,3.61873 -2.93355,6.55229 -6.55229,6.55229c-3.61873,0 -6.55229,-2.93355 -6.55229,-6.55229zM296.26701,153.62245c0,-3.26384 2.64587,-5.90971 5.90971,-5.90971c3.26384,0 5.90971,2.64587 5.90971,5.90971c0,3.26384 -2.64587,5.90971 -5.90971,5.90971c-3.26384,0 -5.90971,-2.64587 -5.90971,-5.90971zM302.4521,137.82053c0,-1.40471 1.13874,-2.54345 2.54345,-2.54345c1.40471,0 2.54345,1.13874 2.54345,2.54345c0,1.40471 -1.13874,2.54345 -2.54345,2.54345c-1.40471,0 -2.54345,-1.13874 -2.54345,-2.54345z" data-paper-data="{&quot;isPathIcon&quot;:true}" style="fill: rgb(255, 255, 255);"></path></g></svg>